<?xml version="1.0" encoding="UTF-8" standalone="no"?>
<svg
   xmlns:shaper="http://www.shapertools.com/namespaces/shaper"
   xmlns:dc="http://purl.org/dc/elements/1.1/"
   xmlns:cc="http://creativecommons.org/ns#"
   xmlns:rdf="http://www.w3.org/1999/02/22-rdf-syntax-ns#"
   xmlns:svg="http://www.w3.org/2000/svg"
   xmlns="http://www.w3.org/2000/svg"
   xmlns:sodipodi="http://sodipodi.sourceforge.net/DTD/sodipodi-0.dtd"
   xmlns:inkscape="http://www.inkscape.org/namespaces/inkscape"
   width="75in"
   height="62in"
   viewBox="0 0 1905 1574.8001"
   version="1.1"
   id="svg8"
   inkscape:version="1.0.2 (e86c870879, 2021-01-15, custom)"
   sodipodi:docname="Cabinet Graphics.svg">
  <defs
     id="defs2" />
  <sodipodi:namedview
     id="base"
     pagecolor="#ffffff"
     bordercolor="#666666"
     borderopacity="1.0"
     inkscape:pageopacity="0.0"
     inkscape:pageshadow="2"
     inkscape:zoom="0.19237231"
     inkscape:cx="3600"
     inkscape:cy="2976"
     inkscape:document-units="in"
     inkscape:current-layer="layer1"
     inkscape:document-rotation="0"
     showgrid="false"
     units="in"
     inkscape:window-width="3440"
     inkscape:window-height="1377"
     inkscape:window-x="1072"
     inkscape:window-y="219"
     inkscape:window-maximized="1" />
  <metadata
     id="metadata5">
    <rdf:RDF>
      <cc:Work
         rdf:about="">
        <dc:format>image/svg+xml</dc:format>
        <dc:type
           rdf:resource="http://purl.org/dc/dcmitype/StillImage" />
        <dc:title></dc:title>
      </cc:Work>
    </rdf:RDF>
  </metadata>
  <g
     inkscape:label="Component Boundaries"
     inkscape:groupmode="layer"
     id="layer1">
    <path
       d="m 1448.499,1435.1009 a 25.400003,25.400003 0 0 0 -25.4,25.4 v 76.2 h 457.2001 V 641.35005 H 1423.099 v 76.2 a 25.400003,25.400003 0 0 0 25.4,25.4 38.100004,38.100004 0 0 1 38.1,38.1 v 615.95085 a 38.100004,38.100004 0 0 1 -38.1,38.1 z"
       fill="#000000"
       shaper:cutDepth="0"
       shaper:pathType="exterior"
       vector-effect="non-scaling-stroke"
       id="path873"
       style="fill:#000000;fill-opacity:0.0970588;stroke:none;stroke-width:1;stroke-miterlimit:4;stroke-dasharray:none;stroke-opacity:1" />
    <path
       d="m 1677.0991,140.7206 a 6.35,6.35 0 0 0 5.2473,6.25354 l 57.288,10.1014 a 38.1,38.1 0 0 1 30.9051,44.13735 l -52.5911,298.26016 a 38.1,38.1 0 0 1 -34.2006,31.33899 l -33.4469,2.9263 7.7482,88.5617 h 222.25 V 38.099191 h -196.85 a 6.35,6.35 0 0 0 -6.35,6.349964 z"
       fill="#000000"
       shaper:cutDepth="0"
       shaper:pathType="exterior"
       vector-effect="non-scaling-stroke"
       id="path965"
       style="font-variation-settings:normal;vector-effect:non-scaling-stroke;fill:#000000;fill-opacity:0.0970588;stroke:none;stroke-width:1;stroke-linecap:butt;stroke-linejoin:miter;stroke-miterlimit:4;stroke-dasharray:none;stroke-dashoffset:0;stroke-opacity:1;stop-color:#000000" />
    <path
       d="M 1255.7125,746.12518 H 649.28755 v 688.97572 h 606.42495 z"
       fill="#000000"
       shaper:cutDepth="0"
       shaper:pathType="exterior"
       vector-effect="non-scaling-stroke"
       id="path1022"
       style="font-variation-settings:normal;vector-effect:non-scaling-stroke;fill:#000000;fill-opacity:0.0970588;stroke:none;stroke-width:2.24644;stroke-linecap:butt;stroke-linejoin:miter;stroke-miterlimit:4;stroke-dasharray:none;stroke-dashoffset:0;stroke-opacity:1;stop-color:#000000" />
    <g
       id="g1354"
       transform="translate(313.19131,-418.61929)">
      <path
         d="m 982.35373,892.132 a 38.1,38.1 0 0 0 34.63437,-41.27565 L 995.95451,610.44111 a 6.35,6.35 0 0 0 -6.32584,-5.79656 H 288.98883 a 6.35,6.35 0 0 0 -6.32584,5.79656 l -21.03361,240.41524 a 38.1,38.1 0 0 0 34.63439,41.27565 l 339.72434,29.72203 a 38.1,38.1 0 0 0 6.64127,0 z"
         fill="#000000"
         shaper:cutDepth="0"
         shaper:pathType="exterior"
         vector-effect="non-scaling-stroke"
         id="path1137"
         style="font-variation-settings:normal;opacity:1;vector-effect:non-scaling-stroke;fill:#000000;fill-opacity:0.0970588;stroke:none;stroke-width:1;stroke-linecap:butt;stroke-linejoin:miter;stroke-miterlimit:4;stroke-dasharray:none;stroke-dashoffset:0;stroke-opacity:1;stop-color:#000000;stop-opacity:1" />
      <path
         d="m 527.99625,723.19455 a 14.2875,14.2875 0 1 0 -28.575,0 14.2875,14.2875 0 1 0 28.575,0 z"
         fill="#ffffff"
         shaper:cutDepth="0"
         shaper:pathType="interior"
         stroke="#000000"
         vector-effect="non-scaling-stroke"
         id="path1141"
         style="stroke:none;stroke-width:10" />
      <path
         d="m 455.99625,714.19455 a 14.2875,14.2875 0 1 0 -28.575,0 14.2875,14.2875 0 1 0 28.575,0 z"
         fill="#ffffff"
         shaper:cutDepth="0"
         shaper:pathType="interior"
         stroke="#000000"
         vector-effect="non-scaling-stroke"
         id="path1143"
         style="stroke:none;stroke-width:10" />
      <path
         d="m 359.90875,750.69455 a 12.7,12.7 0 1 0 -25.4,0 12.7,12.7 0 1 0 25.4,0 z"
         fill="#ffffff"
         shaper:cutDepth="0"
         shaper:pathType="interior"
         stroke="#000000"
         vector-effect="non-scaling-stroke"
         id="path1145"
         style="stroke:none;stroke-width:10" />
      <path
         d="m 455.99625,750.69455 a 14.2875,14.2875 0 1 0 -28.575,0 14.2875,14.2875 0 1 0 28.575,0 z"
         fill="#ffffff"
         shaper:cutDepth="0"
         shaper:pathType="interior"
         stroke="#000000"
         vector-effect="non-scaling-stroke"
         id="path1147"
         style="stroke:none;stroke-width:10" />
      <path
         d="m 527.99625,759.69455 a 14.2875,14.2875 0 1 0 -28.575,0 14.2875,14.2875 0 1 0 28.575,0 z"
         fill="#ffffff"
         shaper:cutDepth="0"
         shaper:pathType="interior"
         stroke="#000000"
         vector-effect="non-scaling-stroke"
         id="path1149"
         style="stroke:none;stroke-width:10" />
      <path
         d="m 492.49625,750.69455 a 14.2875,14.2875 0 1 0 -28.575,0 14.2875,14.2875 0 1 0 28.575,0 z"
         fill="#ffffff"
         shaper:cutDepth="0"
         shaper:pathType="interior"
         stroke="#000000"
         vector-effect="non-scaling-stroke"
         id="path1151"
         style="stroke:none;stroke-width:10" />
      <path
         d="m 424.49625,768.94455 a 14.2875,14.2875 0 1 0 -28.575,0 14.2875,14.2875 0 1 0 28.575,0 z"
         fill="#ffffff"
         shaper:cutDepth="0"
         shaper:pathType="interior"
         stroke="#000000"
         vector-effect="non-scaling-stroke"
         id="path1153"
         style="stroke:none;stroke-width:10" />
      <path
         d="m 424.49625,732.44455 a 14.2875,14.2875 0 1 0 -28.575,0 14.2875,14.2875 0 1 0 28.575,0 z"
         fill="#ffffff"
         shaper:cutDepth="0"
         shaper:pathType="interior"
         stroke="#000000"
         vector-effect="non-scaling-stroke"
         id="path1155"
         style="stroke:none;stroke-width:10" />
      <path
         d="m 492.49625,714.19455 a 14.2875,14.2875 0 1 0 -28.575,0 14.2875,14.2875 0 1 0 28.575,0 z"
         fill="#ffffff"
         shaper:cutDepth="0"
         shaper:pathType="interior"
         stroke="#000000"
         vector-effect="non-scaling-stroke"
         id="path1157"
         style="stroke:none;stroke-width:10" />
      <path
         d="m 947.09625,723.19455 a 14.2875,14.2875 0 1 0 -28.575,0 14.2875,14.2875 0 1 0 28.575,0 z"
         fill="#ffffff"
         shaper:cutDepth="0"
         shaper:pathType="interior"
         stroke="#000000"
         vector-effect="non-scaling-stroke"
         id="path1159"
         style="stroke:none;stroke-width:10" />
      <path
         d="m 875.09625,750.69455 a 14.2875,14.2875 0 1 0 -28.575,0 14.2875,14.2875 0 1 0 28.575,0 z"
         fill="#ffffff"
         shaper:cutDepth="0"
         shaper:pathType="interior"
         stroke="#000000"
         vector-effect="non-scaling-stroke"
         id="path1161"
         style="stroke:none;stroke-width:10" />
      <path
         d="m 779.00875,750.69455 a 12.7,12.7 0 1 0 -25.4,0 12.7,12.7 0 1 0 25.4,0 z"
         fill="#ffffff"
         shaper:cutDepth="0"
         shaper:pathType="interior"
         stroke="#000000"
         vector-effect="non-scaling-stroke"
         id="path1163"
         style="stroke:none;stroke-width:10" />
      <path
         d="m 875.09625,714.19455 a 14.2875,14.2875 0 1 0 -28.575,0 14.2875,14.2875 0 1 0 28.575,0 z"
         fill="#ffffff"
         shaper:cutDepth="0"
         shaper:pathType="interior"
         stroke="#000000"
         vector-effect="non-scaling-stroke"
         id="path1165"
         style="stroke:none;stroke-width:10" />
      <path
         d="m 947.09625,759.69455 a 14.2875,14.2875 0 1 0 -28.575,0 14.2875,14.2875 0 1 0 28.575,0 z"
         fill="#ffffff"
         shaper:cutDepth="0"
         shaper:pathType="interior"
         stroke="#000000"
         vector-effect="non-scaling-stroke"
         id="path1167"
         style="stroke:none;stroke-width:10" />
      <path
         d="m 911.59625,750.69455 a 14.2875,14.2875 0 1 0 -28.575,0 14.2875,14.2875 0 1 0 28.575,0 z"
         fill="#ffffff"
         shaper:cutDepth="0"
         shaper:pathType="interior"
         stroke="#000000"
         vector-effect="non-scaling-stroke"
         id="path1169"
         style="stroke:none;stroke-width:10" />
      <path
         d="m 843.59625,768.94455 a 14.2875,14.2875 0 1 0 -28.575,0 14.2875,14.2875 0 1 0 28.575,0 z"
         fill="#ffffff"
         shaper:cutDepth="0"
         shaper:pathType="interior"
         stroke="#000000"
         vector-effect="non-scaling-stroke"
         id="path1171"
         style="stroke:none;stroke-width:10" />
      <path
         d="m 843.59625,732.44455 a 14.2875,14.2875 0 1 0 -28.575,0 14.2875,14.2875 0 1 0 28.575,0 z"
         fill="#ffffff"
         shaper:cutDepth="0"
         shaper:pathType="interior"
         stroke="#000000"
         vector-effect="non-scaling-stroke"
         id="path1173"
         style="stroke:none;stroke-width:10" />
      <path
         d="m 911.59625,714.19455 a 14.2875,14.2875 0 1 0 -28.575,0 14.2875,14.2875 0 1 0 28.575,0 z"
         fill="#ffffff"
         shaper:cutDepth="0"
         shaper:pathType="interior"
         stroke="#000000"
         vector-effect="non-scaling-stroke"
         id="path1175"
         style="stroke:none;stroke-width:10" />
      <path
         d="m 461.50875,655.44455 a 12.7,12.7 0 1 0 -25.4,0 12.7,12.7 0 1 0 25.4,0 z"
         fill="#ffffff"
         shaper:cutDepth="0"
         shaper:pathType="interior"
         stroke="#000000"
         vector-effect="non-scaling-stroke"
         id="path1193"
         style="stroke:none;stroke-width:10" />
      <path
         d="m 912.35875,655.44455 a 12.7,12.7 0 1 0 -25.4,0 12.7,12.7 0 1 0 25.4,0 z"
         fill="#ffffff"
         shaper:cutDepth="0"
         shaper:pathType="interior"
         stroke="#000000"
         vector-effect="non-scaling-stroke"
         id="path1195"
         style="stroke:none;stroke-width:10" />
      <path
         d="m 391.65875,655.44455 a 12.7,12.7 0 1 0 -25.4,0 12.7,12.7 0 1 0 25.4,0 z"
         fill="#ffffff"
         shaper:cutDepth="0"
         shaper:pathType="interior"
         stroke="#000000"
         vector-effect="non-scaling-stroke"
         id="path1197"
         style="stroke:none;stroke-width:10" />
      <path
         d="m 347.20875,655.44455 a 12.7,12.7 0 1 0 -25.4,0 12.7,12.7 0 1 0 25.4,0 z"
         fill="#ffffff"
         shaper:cutDepth="0"
         shaper:pathType="interior"
         stroke="#000000"
         vector-effect="non-scaling-stroke"
         id="path1199"
         style="stroke:none;stroke-width:10" />
      <path
         d="m 842.50875,655.44455 a 12.7,12.7 0 1 0 -25.4,0 12.7,12.7 0 1 0 25.4,0 z"
         fill="#ffffff"
         shaper:cutDepth="0"
         shaper:pathType="interior"
         stroke="#000000"
         vector-effect="non-scaling-stroke"
         id="path1201"
         style="stroke:none;stroke-width:10" />
      <path
         d="m 956.80875,655.44455 a 12.7,12.7 0 1 0 -25.4,0 12.7,12.7 0 1 0 25.4,0 z"
         fill="#ffffff"
         shaper:cutDepth="0"
         shaper:pathType="interior"
         stroke="#000000"
         vector-effect="non-scaling-stroke"
         id="path1203"
         style="stroke:none;stroke-width:10" />
      <circle
         style="font-variation-settings:normal;opacity:1;vector-effect:non-scaling-stroke;fill:#ffffff;fill-opacity:1;stroke:none;stroke-width:1;stroke-linecap:butt;stroke-linejoin:miter;stroke-miterlimit:4;stroke-dasharray:none;stroke-dashoffset:0;stroke-opacity:1;paint-order:markers fill stroke;stop-color:#000000;stop-opacity:1"
         id="path1285"
         cx="639.30878"
         cy="776.09454"
         r="38.100002" />
    </g>
    <rect
       style="font-variation-settings:normal;vector-effect:non-scaling-stroke;fill:#000000;fill-opacity:0.0970588;stroke:none;stroke-width:1;stroke-linecap:butt;stroke-linejoin:miter;stroke-miterlimit:4;stroke-dasharray:none;stroke-dashoffset:0;stroke-opacity:1;paint-order:markers fill stroke;stop-color:#000000"
       id="rect1356"
       width="622.29999"
       height="84.137505"
       x="641.35004"
       y="49.703918" />
    <g
       id="g2255"
       transform="translate(140.27083,269.03318)">
      <g
         id="g1509"
         transform="translate(35.197034,-0.44535)">
        <path
           d="m 403.69103,287.68502 -248.43769,-22.53508 -7.74816,88.56171 h 250.40927 z"
           fill="#000000"
           shaper:cutDepth="0"
           shaper:pathType="exterior"
           vector-effect="non-scaling-stroke"
           id="path1402"
           style="font-variation-settings:normal;vector-effect:non-scaling-stroke;fill:#000000;fill-opacity:0.0970588;stroke:none;stroke-width:1;stroke-linecap:butt;stroke-linejoin:miter;stroke-miterlimit:4;stroke-dasharray:none;stroke-dashoffset:0;stroke-opacity:1;stop-color:#000000"
           sodipodi:nodetypes="ccccc" />
        <path
           d="m 296.22528,311.26537 a 12.7,12.7 0 1 0 25.4,0 12.7,12.7 0 1 0 -25.4,0 z"
           fill="#ffffff"
           shaper:cutDepth="0"
           shaper:pathType="interior"
           stroke="#000000"
           vector-effect="non-scaling-stroke"
           id="path1404"
           style="font-variation-settings:normal;vector-effect:non-scaling-stroke;fill:#ffffff;fill-opacity:1;stroke:none;stroke-width:1;stroke-linecap:butt;stroke-linejoin:miter;stroke-miterlimit:4;stroke-dasharray:none;stroke-dashoffset:0;stroke-opacity:1;stop-color:#000000" />
      </g>
      <path
         d="m 453.58389,288.18058 -0.4884,65.08572 h 359.1293 l 0.4683,-62.39059 -43.2056,-0.32426 -0.1496,19.93844 c -0.0132,1.75344 -1.44526,3.16423 -3.1987,3.15109 l -42.8613,-0.32168 c -1.75346,-0.0131 -3.16426,-1.44528 -3.1511,-3.19874 l 0.1496,-19.93844 c -266.6925,-2.00154 0,0 -266.6925,-2.00154 z"
         fill="#000000"
         shaper:cutDepth="0"
         shaper:pathType="exterior"
         vector-effect="non-scaling-stroke"
         id="path1428"
         style="font-variation-settings:normal;opacity:1;vector-effect:non-scaling-stroke;fill:#000000;fill-opacity:0.0970588;stroke:none;stroke-width:1;stroke-linecap:butt;stroke-linejoin:miter;stroke-miterlimit:4;stroke-dasharray:none;stroke-dashoffset:0;stroke-opacity:1;stop-color:#000000;stop-opacity:1"
         sodipodi:nodetypes="cccccsccscc" />
      <path
         id="path1449"
         style="font-variation-settings:normal;opacity:1;vector-effect:non-scaling-stroke;fill:#000000;fill-opacity:0.0970588;stroke:none;stroke-width:1;stroke-linecap:butt;stroke-linejoin:miter;stroke-miterlimit:4;stroke-dasharray:none;stroke-dashoffset:0;stroke-opacity:1;stop-color:#000000;stop-opacity:1"
         d="m 1170.8654,288.18086 c -359.10932,2.69492 0,0 -359.10932,2.69492 l 0.46871,62.39052 h 359.12901 z"
         sodipodi:nodetypes="ccccc" />
      <g
         id="g1515"
         transform="translate(-104.15828,3.83096)">
        <path
           d="m 1538.1664,260.87363 -248.4377,22.53509 5.7765,66.02662 h 250.4093 z"
           fill="#000000"
           shaper:cutDepth="0"
           shaper:pathType="exterior"
           vector-effect="non-scaling-stroke"
           id="path1472"
           style="font-variation-settings:normal;vector-effect:non-scaling-stroke;fill:#000000;fill-opacity:0.0970588;stroke:none;stroke-width:1;stroke-linecap:butt;stroke-linejoin:miter;stroke-miterlimit:4;stroke-dasharray:none;stroke-dashoffset:0;stroke-opacity:1;stop-color:#000000"
           sodipodi:nodetypes="ccccc" />
        <path
           d="m 1371.7944,306.98906 a 12.700002,12.700002 0 1 0 25.4,0 12.700002,12.700002 0 1 0 -25.4,0 z"
           fill="#ffffff"
           shaper:cutDepth="0"
           shaper:pathType="interior"
           stroke="#000000"
           vector-effect="non-scaling-stroke"
           id="path1474"
           style="font-variation-settings:normal;vector-effect:non-scaling-stroke;fill:#ffffff;fill-opacity:1;stroke:none;stroke-width:1;stroke-linecap:butt;stroke-linejoin:miter;stroke-miterlimit:4;stroke-dasharray:none;stroke-dashoffset:0;stroke-opacity:1;stop-color:#000000" />
      </g>
      <path
         style="font-variation-settings:normal;opacity:1;vector-effect:non-scaling-stroke;fill:#000000;fill-opacity:0.0970588;stroke:none;stroke-width:1;stroke-linecap:butt;stroke-linejoin:miter;stroke-miterlimit:4;stroke-dasharray:none;stroke-dashoffset:0;stroke-opacity:1;stop-color:#000000;stop-opacity:1"
         d="m 1171.3538,353.2663 -0.4884,-65.08543 14.705,-0.94118 5.7765,66.02661 h -19.9931"
         id="path1521" />
      <path
         style="font-variation-settings:normal;opacity:1;vector-effect:non-scaling-stroke;fill:#000000;fill-opacity:0.0970588;stroke:none;stroke-width:1;stroke-linecap:butt;stroke-linejoin:miter;stroke-miterlimit:4;stroke-dasharray:none;stroke-dashoffset:0;stroke-opacity:1;stop-color:#000000;stop-opacity:1"
         d="m 453.0955,353.2663 0.4884,-65.08572 -14.69583,-0.94092 -5.77657,66.02664 z"
         id="path1540" />
      <rect
         style="font-variation-settings:normal;opacity:1;vector-effect:non-scaling-stroke;fill:#000000;fill-opacity:0.0970588;stroke:none;stroke-width:1;stroke-linecap:butt;stroke-linejoin:miter;stroke-miterlimit:4;stroke-dasharray:none;stroke-dashoffset:0;stroke-opacity:1;paint-order:markers fill stroke;stop-color:#000000;stop-opacity:1"
         id="rect1580"
         width="57.150002"
         height="88.900002"
         x="1405.4807"
         y="388.67935"
         transform="rotate(-5)" />
      <rect
         style="font-variation-settings:normal;opacity:1;vector-effect:non-scaling-stroke;fill:#000000;fill-opacity:0.0970588;stroke:none;stroke-width:1;stroke-linecap:butt;stroke-linejoin:miter;stroke-miterlimit:4;stroke-dasharray:none;stroke-dashoffset:0;stroke-opacity:1;paint-order:markers fill stroke;stop-color:#000000;stop-opacity:1"
         id="rect1584"
         width="57.150002"
         height="88.900002"
         x="155.64616"
         y="247.09846"
         transform="rotate(5)" />
    </g>
    <path
       d="m 456.50103,1435.1009 a 25.400003,25.400003 0 0 1 25.4,25.4 v 76.2 H 24.700931 V 641.35005 H 481.90103 v 76.2 a 25.400003,25.400003 0 0 1 -25.4,25.4 38.100004,38.100004 0 0 0 -38.1,38.1 v 615.95085 a 38.100004,38.100004 0 0 0 38.1,38.1 z"
       fill="#000000"
       shaper:cutDepth="0"
       shaper:pathType="exterior"
       vector-effect="non-scaling-stroke"
       id="path2257"
       style="fill:#000000;fill-opacity:0.0970588;stroke:none;stroke-width:1;stroke-miterlimit:4;stroke-dasharray:none;stroke-opacity:1" />
    <path
       d="m 227.90091,140.72058 a 6.35,6.35 0 0 1 -5.2473,6.25353 l -57.288,10.10141 a 38.1,38.1 0 0 0 -30.9051,44.13735 l 52.5911,298.26018 a 38.1,38.1 0 0 0 34.2006,31.33899 l 33.4469,2.9263 -7.7482,88.5617 H 24.700931 V 38.099175 H 221.55091 a 6.35,6.35 0 0 1 6.35,6.34996 z"
       fill="#000000"
       shaper:cutDepth="0"
       shaper:pathType="exterior"
       vector-effect="non-scaling-stroke"
       id="path2259"
       style="font-variation-settings:normal;vector-effect:non-scaling-stroke;fill:#000000;fill-opacity:0.0970588;stroke:none;stroke-width:1;stroke-linecap:butt;stroke-linejoin:miter;stroke-miterlimit:4;stroke-dasharray:none;stroke-dashoffset:0;stroke-opacity:1;stop-color:#000000" />
  </g>
</svg>
